<?xml version="1.0" standalone="no"?>
<!DOCTYPE svg PUBLIC "-//W3C//DTD SVG 20010904//EN"
 "http://www.w3.org/TR/2001/REC-SVG-20010904/DTD/svg10.dtd">
<svg version="1.0" xmlns="http://www.w3.org/2000/svg"
 width="1024.000000pt" height="1024.000000pt" viewBox="0 0 1024.000000 1024.000000"
 preserveAspectRatio="xMidYMid meet">

<g transform="translate(0.000000,1024.000000) scale(0.100000,-0.100000)"
fill="#000000" stroke="none">
<path d="M3325 7843 c-45 -3 -68 -9 -115 -33 -33 -16 -40 -53 -40 -221 0 -189
5 -179 -88 -179 -61 0 -192 -24 -224 -41 -10 -6 -23 -21 -28 -35 -11 -28 -14
-2413 -4 -2451 4 -13 22 -32 41 -44 33 -21 42 -22 216 -15 567 21 789 12 1117
-43 136 -23 250 -46 293 -60 18 -6 77 -25 132 -42 55 -18 104 -36 110 -40 5
-5 16 -9 24 -9 8 0 76 -30 150 -67 133 -66 138 -67 216 -68 76 0 85 3 180 49
166 82 269 126 293 126 10 0 22 4 28 9 5 4 32 14 59 20 28 7 59 17 70 22 25
11 138 35 280 61 261 46 570 60 1042 45 259 -9 263 -9 297 13 25 15 37 31 41
53 3 18 4 576 3 1240 l-3 1209 -23 18 c-29 24 -105 40 -212 47 -61 4 -89 10
-97 21 -9 11 -13 63 -13 177 0 180 -4 194 -68 221 -52 21 -234 28 -372 14 -63
-6 -149 -15 -190 -19 -92 -10 -285 -56 -304 -73 -6 -4 -21 -8 -33 -8 -13 0
-43 -9 -65 -20 -23 -11 -48 -20 -55 -20 -15 0 -74 -25 -193 -83 -220 -108
-483 -291 -633 -439 -15 -16 -33 -28 -40 -28 -6 1 -41 28 -77 61 -141 131
-398 307 -581 396 -137 67 -196 93 -212 93 -7 0 -32 9 -55 20 -22 11 -52 20
-66 20 -14 0 -27 4 -30 9 -6 9 -31 17 -106 31 -25 5 -72 16 -105 24 -33 9 -83
16 -110 16 -28 0 -66 5 -85 10 -36 10 -279 19 -365 13z m395 -262 c47 -5 111
-16 143 -25 32 -9 70 -16 85 -16 16 0 32 -4 38 -8 5 -5 29 -14 54 -21 203 -59
455 -186 632 -319 126 -95 286 -241 307 -280 7 -14 11 -306 11 -984 0 -529 0
-969 0 -975 0 -24 -21 -13 -93 45 -86 70 -262 185 -342 224 -16 8 -39 19 -50
25 -43 24 -174 77 -255 103 -209 68 -271 83 -455 105 -66 9 -145 20 -176 25
-30 6 -88 10 -127 10 l-72 0 0 1057 0 1056 108 -7 c59 -4 145 -11 192 -15z
m3100 -1035 l0 -1054 -97 -5 c-308 -16 -541 -66 -856 -183 -55 -21 -194 -89
-252 -124 -27 -17 -59 -34 -70 -39 -12 -5 -27 -16 -34 -25 -7 -9 -19 -16 -26
-16 -8 0 -15 -3 -17 -7 -1 -5 -25 -23 -53 -42 -27 -19 -69 -52 -92 -73 -79
-71 -73 -155 -73 949 l0 988 85 82 c178 172 352 291 592 408 120 58 290 120
373 135 25 5 65 14 90 20 25 6 92 16 150 21 58 5 116 10 130 12 14 2 53 5 88
6 l62 1 0 -1054z m-3650 -311 c0 -570 4 -923 10 -939 5 -14 24 -35 42 -46 29
-17 52 -20 188 -21 271 -2 447 -22 596 -70 34 -10 70 -19 81 -19 11 0 38 -9
61 -20 22 -11 47 -20 55 -20 7 0 32 -9 55 -20 22 -11 47 -20 54 -20 18 -1 63
-36 52 -42 -10 -6 -103 5 -184 22 -30 6 -93 15 -140 20 -406 40 -436 42 -655
35 -121 -4 -245 -8 -275 -9 l-55 -1 0 1030 0 1030 45 5 c25 3 51 4 58 2 9 -3
12 -196 12 -917z m4018 -124 l2 -1034 -92 7 c-191 15 -521 15 -663 0 -77 -8
-183 -18 -235 -24 -52 -5 -117 -14 -145 -21 -27 -6 -81 -13 -120 -16 l-70 -4
25 20 c14 12 34 21 45 21 12 0 25 4 30 9 14 12 149 60 220 77 33 8 68 19 77
25 10 5 28 9 40 9 13 0 55 7 93 16 87 20 255 32 449 33 138 1 152 3 182 23 18
13 35 32 38 43 3 11 6 430 6 931 0 501 3 914 7 918 4 4 30 6 58 4 l50 -3 3
-1034z m-2773 -1101 c3 -5 -3 -10 -14 -10 -12 0 -21 5 -21 10 0 6 6 10 14 10
8 0 18 -4 21 -10z m1445 0 c0 -5 -9 -10 -21 -10 -11 0 -17 5 -14 10 3 6 13 10
21 10 8 0 14 -4 14 -10z"/>
<path d="M6080 3855 c-81 -14 -185 -63 -242 -115 -24 -22 -46 -40 -50 -40 -5
0 -8 -7 -8 -15 0 -9 -6 -18 -13 -20 -10 -4 -39 -56 -89 -158 -15 -31 -30 -180
-23 -237 21 -174 129 -337 275 -413 72 -37 210 -70 277 -64 76 6 191 36 225
59 14 10 30 18 36 18 5 0 41 29 79 64 77 72 140 180 156 270 23 123 8 275 -34
357 -92 177 -214 268 -399 298 -76 12 -102 11 -190 -4z m236 -209 c53 -25 121
-86 140 -127 40 -82 44 -101 44 -183 0 -94 -28 -186 -73 -237 -134 -151 -385
-140 -494 23 -41 61 -58 121 -58 208 0 140 51 237 160 305 68 42 203 47 281
11z"/>
<path d="M1475 3838 c-3 -7 -4 -240 -3 -518 l3 -505 99 -3 c73 -2 102 1 108
10 4 7 8 88 8 179 l0 166 159 6 c134 5 168 9 213 28 110 47 171 107 196 195
15 51 15 161 1 217 -23 93 -115 180 -225 213 -77 24 -551 33 -559 12z m522
-198 c67 -53 83 -146 38 -212 -14 -21 -35 -42 -46 -48 -75 -40 -280 -57 -293
-24 -9 23 -7 299 1 308 4 4 67 6 138 4 122 -3 133 -5 162 -28z"/>
<path d="M2651 3807 c-18 -40 -29 -66 -62 -157 -7 -19 -21 -54 -31 -77 -10
-24 -18 -47 -18 -52 0 -9 -32 -93 -61 -158 -11 -24 -19 -52 -19 -62 0 -11 -4
-22 -9 -26 -5 -3 -15 -22 -21 -43 -6 -20 -19 -57 -29 -82 -10 -25 -24 -61 -31
-80 -6 -19 -21 -57 -32 -85 -27 -66 -58 -156 -58 -167 0 -4 45 -8 100 -8 119
0 125 4 158 112 13 40 28 78 34 85 15 18 411 19 425 1 6 -7 16 -35 23 -63 8
-27 23 -68 34 -90 l21 -40 103 -3 102 -3 0 25 c0 14 -4 27 -9 30 -5 3 -12 18
-15 33 -7 27 -36 109 -61 168 -7 17 -25 64 -40 105 -15 41 -34 89 -41 105 -7
17 -16 44 -20 60 -4 17 -10 35 -14 40 -4 6 -15 30 -24 55 -8 25 -27 77 -42
115 -14 39 -32 88 -39 110 -8 22 -27 74 -43 115 l-29 75 -116 3 -116 3 -20
-44z m163 -257 c9 -22 16 -49 16 -60 0 -10 4 -21 9 -24 4 -3 14 -27 21 -53 6
-27 16 -57 21 -68 15 -33 48 -139 45 -143 -2 -2 -67 -6 -145 -9 -114 -5 -141
-4 -141 7 0 17 18 73 38 120 8 19 18 48 23 65 4 16 15 53 24 80 49 140 62 152
89 85z"/>
<path d="M3456 3843 c-3 -4 -6 -230 -6 -503 1 -377 4 -501 13 -514 10 -14 27
-16 102 -14 l90 3 0 328 c0 180 2 327 5 327 12 -1 29 -18 60 -65 19 -27 46
-66 60 -85 61 -81 126 -169 140 -190 8 -12 49 -68 90 -124 41 -55 83 -112 92
-126 43 -67 53 -71 146 -68 l87 3 0 515 0 515 -97 3 -98 3 0 -336 c0 -265 -3
-336 -12 -333 -7 3 -36 38 -65 79 -67 97 -125 177 -139 192 -6 7 -19 26 -30
42 -18 29 -118 169 -209 293 l-45 62 -89 0 c-48 0 -91 -3 -95 -7z"/>
<path d="M4580 3843 c-2 -70 3 -888 6 -938 2 -38 4 -76 4 -83 0 -11 42 -13
228 -9 242 5 299 10 347 32 17 7 41 16 55 20 29 7 160 102 160 115 0 5 6 15
13 22 24 25 64 103 83 163 23 72 27 286 6 307 -7 7 -12 19 -12 27 0 35 -68
148 -120 202 -61 62 -122 95 -236 128 -63 19 -98 21 -303 21 -127 0 -231 -3
-231 -7z m525 -206 c119 -63 175 -160 175 -304 0 -109 -32 -190 -99 -251 -69
-62 -111 -75 -256 -76 l-130 -1 -3 320 c-1 176 0 326 3 333 4 11 32 13 133 10
114 -4 132 -7 177 -31z"/>
<path d="M6897 3843 c-10 -9 -8 -1006 1 -1021 6 -9 34 -12 103 -10 l94 3 5
185 5 185 74 0 c55 0 76 -4 82 -15 86 -151 110 -195 138 -250 55 -108 58 -110
177 -110 57 0 105 3 108 8 2 4 -18 43 -45 87 -26 44 -52 87 -56 95 -25 47
-107 182 -115 186 -18 11 -6 31 27 47 56 27 113 85 140 144 21 47 25 70 25
147 -1 83 -4 96 -33 151 -38 70 -104 124 -174 143 -26 8 -58 18 -71 23 -26 10
-475 13 -485 2z m513 -220 c64 -68 66 -130 5 -200 -27 -31 -44 -42 -77 -47
-82 -12 -187 -19 -212 -12 l-26 6 0 144 c0 78 3 146 7 150 4 4 66 6 136 4
l128 -3 39 -42z"/>
<path d="M8202 3838 c-5 -7 -13 -24 -17 -38 -4 -14 -13 -38 -20 -55 -6 -16
-22 -57 -34 -90 -13 -33 -31 -82 -42 -109 -10 -27 -19 -53 -19 -57 0 -5 -8
-28 -18 -52 -28 -62 -62 -151 -62 -160 0 -4 -9 -26 -19 -50 -10 -23 -24 -55
-29 -72 -6 -16 -22 -59 -35 -95 -14 -36 -30 -81 -38 -100 -7 -19 -21 -55 -31
-79 -29 -66 -23 -71 82 -71 105 0 125 7 134 50 3 18 12 46 19 63 8 18 18 46
23 62 l9 30 215 0 214 0 6 -31 c4 -17 14 -45 23 -64 10 -18 17 -43 17 -55 0
-44 28 -55 139 -55 119 0 114 -10 66 115 -15 39 -36 95 -46 125 -11 30 -24 59
-29 64 -6 6 -10 18 -10 28 0 11 -9 38 -20 60 -11 23 -20 48 -20 55 0 8 -9 33
-20 55 -11 23 -20 48 -20 55 0 7 -9 28 -20 48 -11 20 -20 42 -20 51 0 8 -9 34
-20 56 -11 23 -20 48 -20 55 0 8 -9 33 -20 55 -11 23 -20 48 -20 55 0 7 -8 32
-19 56 -10 23 -24 57 -31 75 l-12 32 -113 0 c-78 0 -116 -4 -123 -12z m138
-261 c0 -9 9 -36 19 -60 10 -23 24 -63 31 -90 7 -26 17 -50 21 -53 5 -3 9 -16
9 -30 0 -14 9 -44 20 -66 39 -81 27 -88 -157 -88 -100 0 -103 1 -103 23 0 12
6 33 13 47 8 14 17 41 20 59 4 18 13 47 22 64 8 18 28 73 44 124 35 110 40
120 52 102 5 -8 9 -22 9 -32z"/>
</g>
</svg>
